<svg width="22" height="22" viewBox="0 0 22 22" fill="none" xmlns="http://www.w3.org/2000/svg">
<path d="M11 22C17.0751 22 22 17.0751 22 11C22 4.92487 17.0751 0 11 0C4.92487 0 0 4.92487 0 11C0 17.0751 4.92487 22 11 22Z" fill="#1A212F"/>
<path fill-rule="evenodd" clip-rule="evenodd" d="M10.5844 15.8244H11.4478C11.4478 15.8244 11.7085 15.7958 11.8417 15.6522C11.9642 15.5205 11.9603 15.273 11.9603 15.273C11.9603 15.273 11.9435 14.1145 12.4811 13.9439C13.0111 13.7759 13.6918 15.0636 14.4132 15.5587C14.9587 15.9334 15.3732 15.8513 15.3732 15.8513L17.3021 15.8244C17.3021 15.8244 18.3111 15.7622 17.8327 14.9689C17.7935 14.904 17.5541 14.382 16.3985 13.3094C15.1891 12.1868 15.351 12.3684 16.8079 10.4266C17.6952 9.24396 18.05 8.52198 17.9392 8.21275C17.8335 7.91823 17.1809 7.99608 17.1809 7.99608L15.0091 8.00961C15.0091 8.00961 14.8481 7.98764 14.7287 8.05902C14.612 8.12902 14.5369 8.29217 14.5369 8.29217C14.5369 8.29217 14.1931 9.2073 13.7347 9.98556C12.7676 11.6278 12.3809 11.7144 12.2229 11.6125C11.8552 11.3748 11.947 10.6577 11.947 10.1483C11.947 8.55688 12.1884 7.89333 11.477 7.72156C11.2409 7.6645 11.0672 7.62685 10.4634 7.62077C9.68848 7.61273 9.03257 7.62312 8.66119 7.80509C8.41412 7.92607 8.22352 8.19569 8.33961 8.21118C8.48314 8.2304 8.80825 8.29883 8.98061 8.53355C9.20317 8.8363 9.19532 9.51633 9.19532 9.51633C9.19532 9.51633 9.32317 11.3897 8.89669 11.6225C8.60393 11.7821 8.20235 11.4562 7.34016 9.96634C6.89838 9.20318 6.56484 8.35962 6.56484 8.35962C6.56484 8.35962 6.50052 8.20197 6.38581 8.11765C6.24659 8.01549 6.05207 7.98294 6.05207 7.98294L3.98827 7.99647C3.98827 7.99647 3.67846 8.0051 3.56473 8.13981C3.46355 8.25962 3.55669 8.50747 3.55669 8.50747C3.55669 8.50747 5.17243 12.2876 7.00191 14.1926C8.67942 15.9391 10.5844 15.8244 10.5844 15.8244Z" fill="#FFFDFB"/>
</svg>
